<?xml version="1.0" standalone="no"?>
<svg viewBox="0 0 200 200" xmlns="http://www.w3.org/2000/svg">
  <path fill="#FF0066" d="M40.3,-58.2C51.2,-47.6,58.1,-34.4,65.8,-19.4C73.5,-4.3,81.9,12.5,77.9,25.5C73.9,38.5,57.6,47.6,42.5,58.9C27.5,70.3,13.7,84,-0.3,84.4C-14.4,84.9,-28.8,72.2,-42.1,60.2C-55.4,48.3,-67.7,37.1,-72.3,23.4C-77,9.6,-74.1,-6.7,-67.4,-20.3C-60.8,-33.8,-50.5,-44.5,-38.6,-54.7C-26.8,-65,-13.4,-74.7,0.7,-75.6C14.7,-76.5,29.5,-68.7,40.3,-58.2Z" transform="translate(100 100)" />
</svg>
